<?xml version="1.0" standalone="no"?><!DOCTYPE svg PUBLIC "-//W3C//DTD SVG 1.1//EN" "http://www.w3.org/Graphics/SVG/1.1/DTD/svg11.dtd"><svg t="1513741216506" class="icon" style="" viewBox="0 0 1024 1024" version="1.1" xmlns="http://www.w3.org/2000/svg" p-id="5424" xmlns:xlink="http://www.w3.org/1999/xlink" width="200" height="200"><defs><style type="text/css"></style></defs><path d="M333.824 264.192c-34.816 0-61.44 26.624-61.44 61.44s26.624 61.44 61.44 61.44 61.44-26.624 61.44-61.44c0-32.768-28.672-61.44-61.44-61.44z m657.408 403.456V202.752c0-67.584-55.296-122.88-122.88-122.88H169.984c-67.584 0-122.88 55.296-122.88 122.88V819.2c0 67.584 55.296 122.88 122.88 122.88h698.368c67.584 0 122.88-55.296 122.88-122.88v-151.552z m-40.96 151.552c0 45.056-36.864 81.92-81.92 81.92H169.984c-40.96 0-73.728-28.672-79.872-67.584l6.144 6.144L307.2 626.688l139.264 139.264 284.672-299.008 217.088 217.088 2.048 135.168z m0-192.512L731.136 407.552 446.464 708.608 307.2 569.344 88.064 790.528V202.752c0-45.056 36.864-81.92 81.92-81.92h698.368c45.056 0 81.92 36.864 81.92 81.92v423.936z" fill="#515151" p-id="5425"></path></svg>